<svg id="LOGO-BUZZTEST" xmlns="http://www.w3.org/2000/svg" width="105.38" height="41.72" viewBox="0 0 105.38 41.72">
  <g id="Groupe_3" data-name="Groupe 3">
    <g id="Groupe_2" data-name="Groupe 2">
      <g id="Groupe_1" data-name="Groupe 1">
        <path id="Tracé_1" data-name="Tracé 1" d="M48.818,62.087h0A9.464,9.464,0,0,0,39.331,52.6H24.7V66.43H39.331a9.558,9.558,0,0,1,6.515,2.629A10.033,10.033,0,0,0,48.818,62.087Z" transform="translate(-24.7 -52.6)" fill="#00e2ff"/>
        <path id="Tracé_2" data-name="Tracé 2" d="M45.731,69.229A9.558,9.558,0,0,0,39.216,66.6H24.7V85.574H39.216A9.464,9.464,0,0,0,48.7,76.087,9.077,9.077,0,0,0,45.731,69.229Z" transform="translate(-24.7 -50.598)" fill="#fb41c6"/>
        <path id="Tracé_3" data-name="Tracé 3" d="M24.7,89.658,30.186,85.2H24.7Z" transform="translate(-24.7 -47.938)" fill="#00e87b"/>
      </g>
    </g>
  </g>
  <g id="Groupe_96" data-name="Groupe 96" transform="translate(30.442 9.319)">
    <g id="Groupe_97" data-name="Groupe 97" transform="translate(0 0)">
      <g id="Groupe_96-2" data-name="Groupe 96" transform="translate(0 0.196)">
        <path id="Tracé_4869" data-name="Tracé 4869" d="M99.128,64.181a2.41,2.41,0,0,0,1.184-2.1c0-2.192-1.9-2.97-3.522-2.97H92.464V69.542H96.79c2.455,0,3.859-1.04,3.859-2.857A2.77,2.77,0,0,0,99.128,64.181Zm-5.36.671h3.117c.575,0,2.459.131,2.471,1.819,0,1.057-.862,1.594-2.567,1.594H93.769ZM96.79,60.3c1.042,0,2.259.467,2.259,1.778,0,1-.729,1.51-2.163,1.51H93.769V60.3Z" transform="translate(-92.464 -59.109)"/>
        <path id="Tracé_4870" data-name="Tracé 4870" d="M115.433,65.527a2.722,2.722,0,0,1-2.771,2.913,2.767,2.767,0,0,1-1.9-.723,2.9,2.9,0,0,1-.862-2.19V59.109h-1.288v6.418a3.952,3.952,0,0,0,4.055,4.157,3.977,3.977,0,0,0,4.059-4.157V59.109h-1.292Z" transform="translate(-98.579 -59.109)"/>
        <path id="Tracé_4871" data-name="Tracé 4871" d="M123.53,60.357h5.693l-5.985,8.433-.05.069v.684h8.048v-1.29h-6.114l6.064-8.446.05-.071v-.627H123.53Z" transform="translate(-104.1 -59.109)"/>
        <path id="Tracé_4872" data-name="Tracé 4872" d="M145.292,59.736v-.627h-7.706v1.248h5.7L137.3,68.79l-.05.069v.684h8.044v-1.29h-6.114l6.064-8.446Z" transform="translate(-109.426 -59.109)"/>
      </g>
      <path id="Tracé_4873" data-name="Tracé 4873" d="M155.449,59.774h-3.777v-.715h8.361v.715h-3.778v9.72h-.806Z" transform="translate(-114.888 -58.894)"/>
      <path id="Tracé_4874" data-name="Tracé 4874" d="M169.331,63.855h6.12v.733h-6.12v4.119h6.6v.777h-7.388V59.034h7.212V59.8h-6.42Z" transform="translate(-121.277 -58.884)"/>
      <path id="Tracé_4875" data-name="Tracé 4875" d="M191.126,60.959a3.384,3.384,0,0,0-3.162-1.42c-1.224,0-3.165.449-3.165,2.12,0,1.33,1.431,1.643,3.192,1.971,2.016.39,4.108.746,4.108,3-.018,2.36-2.391,2.927-4.134,2.927a4.711,4.711,0,0,1-4.289-2.269l.718-.358a4.1,4.1,0,0,0,3.57,1.895c1.281,0,3.329-.357,3.329-2.208.013-1.567-1.717-1.91-3.434-2.241-1.911-.372-3.865-.759-3.865-2.686-.048-2.21,2.254-2.9,3.971-2.9a4.021,4.021,0,0,1,3.822,1.776Z" transform="translate(-127.009 -58.793)"/>
      <path id="Tracé_4876" data-name="Tracé 4876" d="M203.407,59.774h-3.778v-.715h8.361v.715h-3.777v9.72h-.806Z" transform="translate(-133.051 -58.894)"/>
    </g>
    <g id="Groupe_98" data-name="Groupe 98" transform="translate(0 12.478)">
      <path id="Tracé_4877" data-name="Tracé 4877" d="M94.1,80.9h1.2v.917a1.516,1.516,0,0,1-1.016.379,1.41,1.41,0,0,1-1.492-1.482,1.521,1.521,0,0,1,.421-1.1,1.469,1.469,0,0,1,1.072-.411,1.618,1.618,0,0,1,.183.036,1.589,1.589,0,0,1,.755.3,1.526,1.526,0,0,1,.153.1l.025.029.2-.227-.029-.025A1.909,1.909,0,0,0,92.96,79.4a1.8,1.8,0,0,0-.5,1.319,1.718,1.718,0,0,0,1.822,1.8,1.812,1.812,0,0,0,1.333-.569l.012-.011v-1.35H94.1Zm-.009-1.692a1.5,1.5,0,0,0-.741.284A1.463,1.463,0,0,1,94.089,79.205Z" transform="translate(-92.464 -78.882)"/>
      <path id="Tracé_4878" data-name="Tracé 4878" d="M101.748,78.878a1.708,1.708,0,0,0-1.784,1.82,1.784,1.784,0,1,0,3.567.01,1.853,1.853,0,0,0-.5-1.339A1.745,1.745,0,0,0,101.748,78.878Zm-1.029.715A1.48,1.48,0,0,1,103.2,80.7a1.451,1.451,0,1,1-2.9,0A1.545,1.545,0,0,1,100.718,79.593Zm.135-.126a1.4,1.4,0,0,1,.695-.265A1.438,1.438,0,0,0,100.853,79.467Zm-.563,1.067a1.559,1.559,0,0,1,.338-.9A1.564,1.564,0,0,0,100.29,80.534Z" transform="translate(-95.304 -78.878)"/>
      <path id="Tracé_4879" data-name="Tracé 4879" d="M113.168,82.068l-1.242-3.08-.013-.023h-.371l1.446,3.528.013.023h.338l1.438-3.5.021-.052h-.371Z" transform="translate(-99.69 -78.911)"/>
      <rect id="Rectangle_33" data-name="Rectangle 33" width="0.338" height="3.54" transform="translate(16.471 0.054)"/>
      <path id="Tracé_4880" data-name="Tracé 4880" d="M124.671,80.86a1.078,1.078,0,0,0,.3-.778,1.113,1.113,0,0,0-1.175-1.116h-1.563v3.54h.342V81.2h.892l1.184,1.3.012.012h.458l-1.225-1.33A1.147,1.147,0,0,0,124.671,80.86Zm-2.1-1.572h1.221a.765.765,0,0,1,.808.79.74.74,0,0,1-.837.788h-1.192Z" transform="translate(-103.737 -78.911)"/>
      <path id="Tracé_4881" data-name="Tracé 4881" d="M130.31,78.966h-.342l-1.562,3.486-.025.054h.372l.375-.852h2.022l.371.829.008.023h.371l-1.579-3.519Zm.7,2.367h-1.746l.875-1.976Z" transform="translate(-106.067 -78.911)"/>
      <path id="Tracé_4882" data-name="Tracé 4882" d="M136.625,78.966h-.342v3.54h2.292v-.327h-1.95Z" transform="translate(-109.06 -78.911)"/>
      <path id="Tracé_4883" data-name="Tracé 4883" d="M148.51,81.762l-2.267-2.784-.012-.012h-.167v3.54h.342v-2.79l2.267,2.778.013.013h.158v-3.54h-.333Z" transform="translate(-112.764 -78.911)"/>
      <path id="Tracé_4884" data-name="Tracé 4884" d="M154.889,78.878A1.711,1.711,0,0,0,153.1,80.7a1.786,1.786,0,1,0,3.572.01,1.871,1.871,0,0,0-.509-1.344A1.748,1.748,0,0,0,154.889,78.878Zm-1.034.717a1.495,1.495,0,1,1,1.034,2.616,1.426,1.426,0,0,1-1.451-1.507A1.538,1.538,0,0,1,153.855,79.595Zm.135-.127a1.411,1.411,0,0,1,.7-.265A1.462,1.462,0,0,0,153.99,79.468Zm-.563,1.064a1.556,1.556,0,0,1,.327-.877A1.572,1.572,0,0,0,153.427,80.531Z" transform="translate(-115.429 -78.878)"/>
      <path id="Tracé_4885" data-name="Tracé 4885" d="M165.345,78.966,164.3,82.05l-1.029-3.084h-.208l-1.034,3.084L161,78.991l-.008-.025h-.363l1.225,3.526.008.025h.346l.563-1.659.4-1.246.4,1.257.558,1.648h.346l1.229-3.5.017-.05Z" transform="translate(-118.28 -78.911)"/>
    </g>
  </g>
</svg>
