<svg id="Groupe_3" data-name="Groupe 3" xmlns="http://www.w3.org/2000/svg" width="24.118" height="41.72" viewBox="0 0 24.118 41.72">
  <g id="Groupe_2" data-name="Groupe 2">
    <g id="Groupe_1" data-name="Groupe 1">
      <path id="Tracé_1" data-name="Tracé 1" d="M48.818,62.087h0A9.464,9.464,0,0,0,39.331,52.6H24.7V66.43H39.331a9.558,9.558,0,0,1,6.515,2.629A10.033,10.033,0,0,0,48.818,62.087Z" transform="translate(-24.7 -52.6)" fill="#00e2ff"/>
      <path id="Tracé_2" data-name="Tracé 2" d="M45.731,69.229A9.558,9.558,0,0,0,39.216,66.6H24.7V85.574H39.216A9.464,9.464,0,0,0,48.7,76.087,9.077,9.077,0,0,0,45.731,69.229Z" transform="translate(-24.7 -50.598)" fill="#fb41c6"/>
      <path id="Tracé_3" data-name="Tracé 3" d="M24.7,89.658,30.186,85.2H24.7Z" transform="translate(-24.7 -47.938)" fill="#00e87b"/>
    </g>
  </g>
</svg>
