<svg xmlns="http://www.w3.org/2000/svg" width="130.692" height="146.886" viewBox="0 0 130.692 146.886">
  <g id="Groupe_134" data-name="Groupe 134" transform="translate(-1237.797 -45.343)">
    <path id="Tracé_7737" data-name="Tracé 7737" d="M1280.124,86.531a43.357,43.357,0,0,1,6.919-4.406c1.336-1.045,2.646-2.122,3.9-3.271.455-.419,1.333-1.316,1.9-1.834.792-.493,1.714-1.964.8-2.8-.792-.726-2.1.067-2.658.656a53.048,53.048,0,0,0-4.983,4.1,40.17,40.17,0,0,0-3.079,3.423c-.877,1.087-1.684,2.226-2.458,3.385C1280.349,86.029,1280.238,86.281,1280.124,86.531Z" transform="translate(19.613 13.245)" fill="#fb41c6"/>
    <path id="Tracé_7738" data-name="Tracé 7738" d="M1279.751,86.372a39.426,39.426,0,0,0-6.537,1.061,19.434,19.434,0,0,0-3.649,1.358c-1.071.537-3.918,1.278-1.919,2.16,2.06.91,6.407-1.529,8.262-2.432A41.742,41.742,0,0,0,1279.751,86.372Z" transform="translate(13.51 19.012)" fill="#fb41c6"/>
    <path id="Tracé_7739" data-name="Tracé 7739" d="M1280.323,87.638c-1.7-1.193-3.427-2.331-5.217-3.38q-1.385-.81-2.8-1.561a22.612,22.612,0,0,0-2.868-1.436c-4.747-.849-.208,2.21.376,2.611a20.9,20.9,0,0,0,3.962,1.778,34.926,34.926,0,0,0,6.4,2Z" transform="translate(13.668 16.575)" fill="#fb41c6"/>
    <path id="Tracé_7740" data-name="Tracé 7740" d="M1278.412,81.154a46.2,46.2,0,0,0-1.075-6.544c-.293-1.229-.415-4.119-1.869-3.655-1.425.455-.239,3.145.017,4.406q.558,2.759,1.238,5.489c.543,2.185,1.157,4.348,1.817,6.5A45.784,45.784,0,0,0,1278.412,81.154Z" transform="translate(17.137 11.844)" fill="#fb41c6"/>
    <path id="Tracé_7741" data-name="Tracé 7741" d="M1278.152,89.978c.744-1.279,1.524-2.539,2.346-3.768.5-1.139.976-2.292,1.4-3.468a48.344,48.344,0,0,0,2.453-9.032c.189-1.75-.826-2.824-2.822-1.042-.925.827-1.048,2.24-1.438,3.416a33.136,33.136,0,0,0-1.232,4.986,73.094,73.094,0,0,0-.853,8.9l.035.107Z" transform="translate(18.632 12.237)" fill="#fb41c6"/>
    <path id="Tracé_7742" data-name="Tracé 7742" d="M1279.293,87.534c-.114.224-.233.445-.35.667,3.5-.973,7.014-1.955,10.427-3.221a54.642,54.642,0,0,0,5.744-2.47,11.351,11.351,0,0,0,2.246-1.22l1.1-.666c2.358-1.528,1.272-2.532.822-2.611-.875-.582-5.934,1.1-6.97,1.459a35.5,35.5,0,0,0-3.752,1.967C1285.2,84.06,1281.363,86.181,1279.293,87.534Z" transform="translate(19.066 15.082)" fill="#fb41c6"/>
    <path id="Tracé_7743" data-name="Tracé 7743" d="M1283.97,90.89a44.3,44.3,0,0,0,3.53,2.9c.5.369,2.29,1.936,2.921,1.987,4.2.342.635-2.769-.2-3.518a26.311,26.311,0,0,0-4.193-3.006,43.86,43.86,0,0,0-6.554-3.1A46.416,46.416,0,0,0,1283.97,90.89Z" transform="translate(19.313 18.912)" fill="#fb41c6"/>
    <path id="Tracé_7744" data-name="Tracé 7744" d="M1262.447,81.82c-.691-3.2-1.468.9-1.567,1.507a10.311,10.311,0,0,0,.085,2.273c.054.881.143,1.758.253,2.63q.121.784.253,1.564a22.757,22.757,0,0,0,.7-2.912A25.866,25.866,0,0,0,1262.447,81.82Z" transform="translate(10.675 16.342)" fill="#fb41c6"/>
    <path id="Tracé_7745" data-name="Tracé 7745" d="M1259.917,91.141c-.452-.581-.624-1.67-1.355-1.743-1.2-.12-1.114,1.4-.534,2.277.628,1.9,3.132,3.884,4.49,5.423q1.113,1.26,2.293,2.456a47.816,47.816,0,0,0-2.916-5.5C1261.272,93.059,1260.612,92.085,1259.917,91.141Z" transform="translate(9.184 20.411)" fill="#fb41c6"/>
    <path id="Tracé_7746" data-name="Tracé 7746" d="M1279.358,90.037c.445,1.418,1.264,5.038,2.68,5.281,1.165.2-.426-2.189-.708-2.792q-.571-1.214-1.185-2.4c-.471-.915-.967-1.815-1.481-2.7C1278.859,88.3,1279.087,89.173,1279.358,90.037Z" transform="translate(18.937 19.496)" fill="#fb41c6"/>
    <path id="Tracé_7747" data-name="Tracé 7747" d="M1264.949,92.737c-1.161.4-1.28,1.63-1.042,3.345a43.361,43.361,0,0,0,.546,4.509c.029.116.118.3.178.459a43.142,43.142,0,0,0,1.106-6.174C1265.89,93.659,1265.931,92.339,1264.949,92.737Z" transform="translate(12.052 21.928)" fill="#fb41c6"/>
    <path id="Tracé_7748" data-name="Tracé 7748" d="M1304.812,92.756c.36-.285,3.124-2.229,3.052-2.622-.4-2.145-3.149.4-3.743.825A48.873,48.873,0,0,0,1300.27,94a51.124,51.124,0,0,0-4.554,4.558,54.079,54.079,0,0,0,5.131-2.949Q1302.895,94.277,1304.812,92.756Z" transform="translate(26.839 20.361)" fill="#fb41c6"/>
    <path id="Tracé_7749" data-name="Tracé 7749" d="M1259.109,84.1c-.233-.354-2-2.963-1.409-.476a13.687,13.687,0,0,0,1.231,1.844q.726,1.071,1.466,2.131c.257.369.525.727.786,1.093-.334-.935-.7-1.856-1.131-2.758A14.828,14.828,0,0,0,1259.109,84.1Z" transform="translate(9.167 17.245)" fill="#fb41c6"/>
    <path id="Tracé_7750" data-name="Tracé 7750" d="M1271.533,93.458c-.426.708-.587.916.164,1.256.44.2.7-.064,1.092-.315a15.946,15.946,0,0,0,1.225-1.023A24.913,24.913,0,0,0,1276,90.883l3.129-4.171c-1.181.8-2.346,1.621-3.451,2.521C1274.442,90.237,1272.083,91.917,1271.533,93.458Z" transform="translate(15.466 19.169)" fill="#fb41c6"/>
    <path id="Tracé_7751" data-name="Tracé 7751" d="M1299.936,83.292a35.7,35.7,0,0,0-.458-6.467,13.575,13.575,0,0,0-.477-2.366c-.894-.1-.588,2.674-.572,3.044a67.786,67.786,0,0,0,1.305,8.979C1299.846,85.427,1299.917,84.363,1299.936,83.292Z" transform="translate(28.066 13.49)" fill="#fb41c6"/>
    <path id="Tracé_7752" data-name="Tracé 7752" d="M1294.8,96.491c.808-5.258,1.478-12.174-.417-11.571-.508.161.155,7.61.2,8.53C1294.64,94.465,1294.721,95.478,1294.8,96.491Z" transform="translate(26.132 18.322)" fill="#fb41c6"/>
    <path id="Tracé_7753" data-name="Tracé 7753" d="M1368.2,108.409a.527.527,0,0,0-.628-.521.521.521,0,0,0-.44-.2,501.956,501.956,0,0,0-49.182-55.56c-2.636-2.564-6.37-7.459-10.646-6.7-1.728.306-3.1,1.523-4.418,2.584-2.464,1.98-4.9,4-7.318,6.032q-14.529,12.2-28.171,25.4-15.337,14.843-29.453,30.871a.548.548,0,0,0,0,.732c0,.233,0,.465-.006.7a.482.482,0,0,0,0,.25q-.391,39.4,1.043,78.787a.436.436,0,0,0,0,.075c.006.162.01.326.016.489a.549.549,0,0,0,.02.088.534.534,0,0,0,.464.8l125.982-3.039c.151.107.3.217.448.323a.5.5,0,0,0,.783-.353l1.276-.031a.538.538,0,0,0,.522-.622Q1368.34,148.459,1368.2,108.409Zm-81.613-45.2q6.355-5.6,12.884-10.993c2.675-2.211,6.083-6.088,9.887-5.6,2.814.364,5.869,4.39,7.812,6.281q12.191,11.853,23.549,24.525,13.326,14.863,25.423,30.762c-1.535.89-3.078,1.765-4.617,2.644q-14.035-15.936-29.24-30.781-7.38-7.184-15.026-14.088c-3.646-3.291-7.939-8.072-13.3-7.895-5.081.167-8.774,5.04-12.045,8.318L1276.517,81.82,1244.7,113.713a.518.518,0,0,0-.143.284l-5.526-2.537c0-.158,0-.316,0-.473a.537.537,0,0,0-.041-.212A540.821,540.821,0,0,1,1286.585,63.211Zm57.237,44.365a.549.549,0,0,1-.809.326c-.012,0-.023,0-.035,0a.544.544,0,0,1-.385-.386c0-.016,0-.032,0-.05a.559.559,0,0,1,.669-.78A.7.7,0,0,1,1343.822,107.576Zm-29.468-31.4a.5.5,0,0,1-.25.133.491.491,0,0,1-.315.1.909.909,0,0,1-.462-1.659C1314.2,74.248,1314.995,75.5,1314.354,76.179Zm-40.092,14.6v.306a.575.575,0,0,1-.562.555.484.484,0,0,1-.795-.127.973.973,0,0,1,.19-1.086.589.589,0,0,1,.6-.222.666.666,0,0,1,.079.041A.548.548,0,0,1,1274.261,90.776Zm-14.458,21.21a.9.9,0,0,1-1.162.855.571.571,0,0,1-.406-.531l-.019-.347a.5.5,0,0,1,.651-.509.719.719,0,0,1,.661.056A.546.546,0,0,1,1259.8,111.986Zm-20.779.676,38.9,17.856q-1.6-3.964-2.9-8.016a67.477,67.477,0,0,1-7-7.762c-.974-1.276-4.15-4.468-2.205-6.241,2-1.826,5.046,2.83,7.163,6.838-.487-1.936-.913-3.89-1.3-5.851a.547.547,0,0,1-.252-.187c-1.753-2.377-3.48-4.782-5.094-7.257-.624-.956-1.819-2.82-.274-3.647s2.622,1.389,3.178,2.391c.483.869.909,1.763,1.305,2.669-.514-3.78-.655-8.373,1.917-8.065,1.861.225,1.807,2.763,1.807,4.077a24.863,24.863,0,0,1-1.714,8.891q.955,5.042,2.349,9.973c-.1-2.909.347-5.99,2.622-5.6,3.642.622.189,10.609-.337,12.385a.57.57,0,0,1-.088.162c.705,1.992,1.485,3.961,2.3,5.918l15.234,6.993a93.154,93.154,0,0,1,.392-30.846c-2.661,3.8-7.649,10.279-9.589,7.143-1-1.61,1.914-4.081,2.911-5.066.129-.127.268-.244.4-.369-4.482,2.233-9.483,4.077-10.1,1.662-.553-2.178,3.877-3.925,5.253-4.488a27.212,27.212,0,0,1,6.868-1.671,52.654,52.654,0,0,1-6.844-2.685c-1.607-.745-5.171-1.873-4.571-4.386.638-2.678,5.013-.779,9.092,1.665a28.088,28.088,0,0,1-2.482-3.132c-.963-1.417-4.69-6.338-2.606-8.022,2.141-1.731,5.45,3.025,6.533,4.286a40.609,40.609,0,0,1,4.375,6.221c-2.273-7.233-5.507-19.036-2.39-19.391,2.842-.325,3.625,6.74,3.963,8.375a47.027,47.027,0,0,1,.753,5.054c1.016-6.083,2.915-12.036,6.436-10.328,2.725,1.321.436,6.993-.06,8.777-.37,1.336-.795,2.65-1.258,3.95a39.451,39.451,0,0,1,3.541-3.9c1.661-1.589,5.854-6.07,8.58-4.6,2.276,1.229.123,4.137-3.328,7.223,2.548-1.036,7.152-2.729,8.849-.863,3.854,4.238-14.274,9.651-20.119,11.291,4.809,2.036,17.126,7.933,13.478,11.722-2,2.078-5.941-1.75-7.389-2.871a47.009,47.009,0,0,1-6.625-6.3,68.009,68.009,0,0,1,3.262,6.456c.439,1,1.387,2.95-.168,3.574-2.763,1.108-4.659-6.42-5.441-10.4a91.652,91.652,0,0,0-.517,32.478l6.8,3.123a724.332,724.332,0,0,0-62.6,47.811Q1238.658,151.185,1239.025,112.663Zm68.608,10.832a.729.729,0,0,1-.249.389.689.689,0,0,1-.146.212c-.593.578-1.5-.18-1.232-.866a.58.58,0,0,1,.022-.083.5.5,0,0,1,.161-.413A.86.86,0,0,1,1307.632,123.494Zm-67.547,67.618,0-.038a721.575,721.575,0,0,1,63.559-48.571.552.552,0,0,0,.12-.121c.319-.152.713-.546.822-.558.44-.209.881-.423,1.32-.635q6.559-10.8,14.035-20.977c.058-.237.142-.618.239-1.1-.6-4.626-2.491-19.138,1.236-18.506,2.145.363,1.594,4.959,1.6,6.257a45.463,45.463,0,0,1-.958,9.361,38.085,38.085,0,0,0,4.976-11.771.532.532,0,0,1-.094-.637c.12-.233.258-.455.383-.683l0-.02a.456.456,0,0,1-.157-.285q-.814-5.409-1.632-10.817c-.189-1.256-1.264-4.235-.35-5.507,1.427-1.984,2.728.411,3.07,1.744a30.449,30.449,0,0,1,.9,5.921c.356-2.343.767-4.677,1.264-6.995.237-1.1.559-3.473,2.3-3.066,3.066.716-.565,10.2-2.472,14.684q.672-.819,1.412-1.582c.924-.948,2.987-3.439,4.516-2.037,1.379,1.263-.862,3.437-1.675,4.371a19.694,19.694,0,0,1-6.153,4.681.656.656,0,0,1-.1.026,40.623,40.623,0,0,1-5.461,12.857c3.91-4.087,11.812-11.586,13.469-8.2,1.051,2.145-3.291,4.6-4.619,5.616a56.16,56.16,0,0,1-10.44,6.293.556.556,0,0,1-.342.038.487.487,0,0,1-.113.13q-7.206,9.823-13.548,20.221a511.314,511.314,0,0,0,56.778,46.923Zm125.707-3.034a509.5,509.5,0,0,1-57.977-47.808q30.239-14.525,59.28-31.359.143,39.564.286,79.129Z" transform="translate(0 0)" fill="#fb41c6"/>
    <path id="Tracé_7754" data-name="Tracé 7754" d="M1305.079,82.346q.481-.575.915-1.184c.394-.553.695-.594-.123-.815-1.28-.344-3.328,2.568-4.083,3.534a25.3,25.3,0,0,0-1.793,2.637,17.866,17.866,0,0,0,5.084-4.172Z" transform="translate(28.821 16.207)" fill="#fb41c6"/>
    <path id="Tracé_7755" data-name="Tracé 7755" d="M1280.583,88.968a41.539,41.539,0,0,0-3.827-6.879,40.093,40.093,0,0,0-3.111-3.92c-.613-.679-3.083-4.144-3.936-1.169-.187.653,1.521,2.944,1.876,3.509a28.077,28.077,0,0,0,2.919,3.852,28.693,28.693,0,0,0,6.035,4.989C1280.555,89.221,1280.568,89.1,1280.583,88.968Z" transform="translate(14.78 14.118)" fill="#fb41c6"/>
    <path id="Tracé_7756" data-name="Tracé 7756" d="M1302.944,73.8c-.843-1.27-.831,1.635-.982,2.4q-.289,1.484-.546,2.975c-.253,1.488-.474,2.981-.676,4.476.47-1.228.9-2.473,1.266-3.74C1302.449,78.4,1303.828,75.134,1302.944,73.8Z" transform="translate(29.166 13.039)" fill="#fb41c6"/>
    <path id="Tracé_7757" data-name="Tracé 7757" d="M1285.188,121.378c-.677-2.52-1.908-5.987-3.553-4.434-.937.884.083,3,.332,3.929.063.239.137.474.2.713,1.222,2.943,2.69,5.873,3.768,8.872a.51.51,0,0,0,.189-.269c.758-2.561,1.446-5.139,2.032-7.746.2-.9.827-2.643-.056-3.439C1286.679,117.718,1285.725,119.58,1285.188,121.378Z" transform="translate(20.134 32.999)" fill="#fb41c6"/>
  </g>
</svg>
