<svg xmlns="http://www.w3.org/2000/svg" width="135.334" height="190.539" viewBox="0 0 135.334 190.539">
  <g id="Groupe_133" data-name="Groupe 133" transform="translate(-1242.07 -425.591)">
    <path id="Tracé_7731" data-name="Tracé 7731" d="M1286,480.179h0l.009,0Z" transform="translate(30.532 37.938)" fill="#fb41c6"/>
    <path id="Tracé_7732" data-name="Tracé 7732" d="M1372.748,522.914c-1.946-17.159-5.334-35.188-11.726-51.27-5.261-13.237-13.935-25.912-26.979-32.448a42.266,42.266,0,0,0-14.023-4.138c.875-5.468-2.768-10.13-8.616-9.389-4.907.622-6.638,5.577-5.1,9.76a53.413,53.413,0,0,0-15.225,4.992c-13.437,6.784-23.753,18.569-30.892,31.63a138.548,138.548,0,0,0-10.409,25.3c-2.732,8.767-5.514,17.862-4.433,27.121a.668.668,0,0,0,.012.266c-2.436,1.354-4.851,3.927-1.975,6.316,4,3.321,12.723,2.576,17.5,2.929q19.57,1.447,39.208,1.658.638,23.165.991,46.338.171,11.314.27,22.629.015,1.617.027,3.233a3.477,3.477,0,0,1-3.238,1.851c-.368.193-.885.21-1.275.425a4.423,4.423,0,0,0-2.149,3.956.514.514,0,0,0,.229.476.472.472,0,0,0,.436.49c7.345,1.1,14.739,2.014,21.869-.588a.653.653,0,0,0,.3-.992.612.612,0,0,0,.066-.371,4.327,4.327,0,0,0-2.7-3.76c-1.241-.47-1.254.175-2.41-.168q-2.85.867-2.3-3.517.252-1.571.469-3.144a206.479,206.479,0,0,0,1.59-20.612q.882-23.1,1.5-46.219c0-.008-.005-.015-.005-.025,15.876-.161,31.8-.817,47.6-2.332a87.394,87.394,0,0,0,9.774-1.366c1.783-.376,4.078-.758,5.343-2.249C1379.152,526.519,1375.51,524.022,1372.748,522.914Zm-60.579-96.087c4.767-.28,7.421,3.7,6.646,8.106a48.855,48.855,0,0,0-11.3.309C1305.894,431.415,1307.714,427.088,1312.169,426.827Zm-61.846,72.9a150.419,150.419,0,0,1,8.3-21.971c6.263-13.028,15.23-25.1,27.473-33.064,12.8-8.324,29.382-11.572,43.917-5.96,13.64,5.268,23.116,17.642,28.775,30.691,6.8,15.669,10.326,33.643,12.4,50.667-1.58-2.407-4.541-3.444-7.519-4.241a62.426,62.426,0,0,0-17.557-2.62,46.139,46.139,0,0,0-.578-7.538c-.305-3.265-.288-6.84-1.482-9.938a13.808,13.808,0,0,0-10.492-8.333,6.776,6.776,0,0,0-2.68.046c-1.188-3.236-5-4.163-8.174-4.177-.465,0-1.038.015-1.663.066a.623.623,0,0,0-.617-.254c-5.24.866-9.967,3.317-15.02,4.826-.027.008-.042.025-.068.036a13.94,13.94,0,0,0-7.716-.322c4.966-3.124,10.007-6.073,13.977-10.47,1.1-1.227,5.67-6.012,2.792-7.506-2.836-1.471-8.394,4.511-10.06,6.151a34.305,34.305,0,0,0-6.814,8.535,38.24,38.24,0,0,0-.458-10.48c-.278-1.483-.764-7.48-3.465-7.041-2.288.371-2.6,6.592-2.6,8.229a20.16,20.16,0,0,0,1.873,8.377c-4.175-2.224-10.479,1.537-12.927,4.907-2.778,3.826-3.866,8.874-4.987,13.374-.966,3.88-2.224,8.3-2.461,12.5-6.952,1.32-14.454,1.766-21.241,3.656-1.844.514-4.044,1.722-4.936,3.387C1246.116,513.932,1248.221,506.728,1250.323,499.731Zm22.341,18.439c1.534.9,4.08,2,5.69.727,4.77,1.315,10.887,2.717,15.778,1.715a4.88,4.88,0,0,0,2.366-1.156,3.658,3.658,0,0,0,2.887,2.783c1.322.256,2.886-.322,4.159-.571,2.614-.514,5.238-.936,7.884-1.237,1.159-.132,3.117.1,4.69-.205a2.834,2.834,0,0,0,2.331,1.249c1.742.212,3.787-.378,5.55-.453,2.244-.093,4.463.134,6.7.125,1.863-.007,4.387.095,5.319-1.688,3.57,1.073,7.875.5,9.447-3.276a8.628,8.628,0,0,0,.5-1.731,52,52,0,0,1,13.023,1.5c4.336.992,10.957,1.748,12.016,6.941-20.376,4.741-41.324,4.146-62.107,3.99-20.337-.153-41.308,2.192-61.28-2.58a.614.614,0,0,0-.081-.231c-3.073-5.143,11.4-6.222,13.684-6.6q5.632-.928,11.235-2.01c0,.61.017,1.212.068,1.807A.582.582,0,0,0,1272.664,518.169Zm22.248-33.337a21.125,21.125,0,0,1-2.175-5.392c-.283-1.176-1.066-11.092.949-11.031a.67.67,0,0,1,.227.051A91.9,91.9,0,0,0,1294.912,484.833Zm2.683,29.674c-2.078,7.477-12.564,4.963-18.418,3.351.925-1.671,1.331-4.4,1.851-5.853,1.095-3.053,2.109-6.141,4.216-8.674,1.993-2.392,6.221-5.544,8.775-9.062C1302.334,495.537,1299.019,509.387,1297.595,514.506Zm-2.5-44.243a40.12,40.12,0,0,1,1.317,8.079,37.037,37.037,0,0,1-.2,6.953A90.327,90.327,0,0,1,1295.1,470.264Zm34.2,24.278c-.756-3.087.088-6.167,4.2-5.85a10.637,10.637,0,0,1,4.563,1.766c3.616,2.275,5.231,5.648,5.743,9.757.341,2.748.531,5.522.781,8.279a30.185,30.185,0,0,1,.3,4.407c-.266,4.656-4.643,6.522-8.562,5.375a22.624,22.624,0,0,0-.7-3.972c-.439-2.578-.846-5.166-1.322-7.74-.6-3.258-2.063-8.677-5.058-11.591A.575.575,0,0,0,1329.3,494.542Zm3.69,11.648c.388,2.012.7,4.041,1.048,6.063.166.968.89,3.094.675,3.96a5.37,5.37,0,0,1-4.012,3.714c-1.678.234-3.609-.185-5.314-.163-.8.01-6.034.663-7.763-.139a2.128,2.128,0,0,0,.678-.766c.961-1.885-.414-6.46-1.012-8.677a.619.619,0,0,0,.066-.232c.346-4.219,1.212-10.474,4.141-13.833C1327.536,489.186,1332.238,502.29,1332.989,506.191Zm-5.765-18.988c-1.827,1.456-3.883,1.737-6.25,1.868-.834.046-3.07.151-3.729-.305-3.472-2.4,1.568-3.755,2.521-3.951,2.519-.522,6.641-.595,8.814,1.348A6.472,6.472,0,0,0,1327.224,487.2Zm-9.937,29c0,1.532.075,1.588-.758,1.91-.1.052-.3.152-.6.315a2.08,2.08,0,0,1-1.552.5,24.3,24.3,0,0,1-2.949.28q-2.657.295-5.3.737c-1.175.2-2.639.08-3.637.7a3.223,3.223,0,0,1-5.036-2.376,13.912,13.912,0,0,0,1.314-3.437,56.713,56.713,0,0,0,1.322-5.958c.137-.064.2-.531.241-.731a26.6,26.6,0,0,1,1.744-5.5c.781-1.848,2.646-6.026,4.736-6.37,1.719-.285,3.8,1.654,4.738,2.826a15.7,15.7,0,0,1,1.635,3.139,44.714,44.714,0,0,1,2.631,7.15C1316.347,511.327,1317.532,514.222,1317.288,516.207Zm-11.065-25.387c-1.049.337-2.875-.014-3.985-.037-.544-.012-5.407-.607-5.685-1.1.939-1.375,4.46-1.254,5.872-1.18a8.542,8.542,0,0,1,2.585.47,2.456,2.456,0,0,1,.239.064.524.524,0,0,0,.315.085,1.882,1.882,0,0,1,1.071,1.085Q1307.6,491.169,1306.223,490.82Zm-11.6-2.629c1.158,6.1-8.062,11.1-11.148,15.427a23.219,23.219,0,0,0-2.61,5.258c-1.236,3.2-2.436,10.72-7.107,8.491-.6-6.514,1.948-14.389,3.826-20.568,1-3.273,2.078-6.609,4.492-9.14C1285.141,484.44,1293.323,481.378,1294.618,488.191Zm11.25-9.253q3.516-3.4,7.1-6.729c.627-.512.876-.488.571.32q-.318.534-.634,1.068a10.152,10.152,0,0,1-2.166,2.712,34.41,34.41,0,0,1-3.261,3.182,62.9,62.9,0,0,1-7.914,5.512C1301.375,482.768,1303.951,480.8,1305.868,478.937Zm-6.2,4.16a31.076,31.076,0,0,1,3.521-4.363c1.076-1.139,2.183-2.254,3.331-3.321,1.129-1.049,3.578-3.834,5.2-3.912l.141.08q-3.905,3.638-7.738,7.353C1302.751,480.266,1301.1,481.617,1299.67,483.1Zm12.858,52.565q-.62,22.715-1.469,45.422a202.845,202.845,0,0,1-1.924,23.443c-.21,1.359-1.086,3.829-.051,5.1,2.039,2.51,6.524-1.893,7.346,3.777l.009.024c-6.711,2.3-13.6,1.492-20.495.463.349-4.819,4.48-1.849,6.2-4.122.991-1.312.439-3.656.425-5.168q-.1-11.719-.281-23.437-.346-22.761-.98-45.519,5.187.048,10.372.015c.285,0,.569-.007.854-.008Zm60.681-5.475a10.183,10.183,0,0,1-3.15.714c-3.125.6-6.292.961-9.46,1.254-5.545.514-11.106.885-16.664,1.212q-17.323,1.024-34.681,1.086-16.949.064-33.882-.795-8.866-.45-17.717-1.149c-2.819-.222-5.7-.342-8.492-.807-.915-.151-3.865-.558-4.4-1.227-1.62-.861-1.531-2.068-.741-3.416a9.006,9.006,0,0,1,2.482-1.551.578.578,0,0,0,.208-.163c20.264,4.99,41.534,2.6,62.188,2.756,21.124.159,42.415.756,63.108-4.183.013.005.02.017.035.022C1374.472,524.833,1378.837,526.818,1373.209,530.187Z" transform="translate(0 0)" fill="#fb41c6"/>
    <path id="Tracé_7733" data-name="Tracé 7733" d="M1276.292,453.636a1.041,1.041,0,0,0,.085.231,1.343,1.343,0,0,0,1.649.625,1.624,1.624,0,0,0,.2-2.985,1.519,1.519,0,0,0-2.054,1.858A1.326,1.326,0,0,0,1276.292,453.636Z" transform="translate(23.659 17.914)" fill="#fb41c6"/>
    <path id="Tracé_7734" data-name="Tracé 7734" d="M1283.611,458.224a1.279,1.279,0,0,0,.751,1.458,1.073,1.073,0,0,0,1.555-.085.6.6,0,0,0,.115-.58,1.269,1.269,0,0,0,.137-.776A1.313,1.313,0,0,0,1283.611,458.224Z" transform="translate(28.848 21.981)" fill="#fb41c6"/>
    <path id="Tracé_7735" data-name="Tracé 7735" d="M1285.2,548.151c.234,1.509.5,3.012.878,4.5a.611.611,0,0,0,1.178-.324,60.926,60.926,0,0,1-1.185-6.575,80.444,80.444,0,0,0,1.522-9.719c.187-2.06.858-5.392-.453-7.216a.635.635,0,0,0-.834-.22c-1.546.653-1.671,2.67-1.673,4.126,0,1.536.046,3.066.095,4.6-.115-.521-.232-1.039-.37-1.554a81.373,81.373,0,0,0-4.07-11.308.569.569,0,0,0,.261-.475c.1-3.322.28-6.653.3-9.977.014-1.887.108-4.519-1.176-6.055a.6.6,0,0,0-.6-.156c-2.91.89-1.893,7.489-.983,11.911a69.705,69.705,0,0,0-7.475-12.27.529.529,0,0,0,.093-.346c-.01-.136-.024-.27-.035-.405a.513.513,0,0,0,.013-.127c-.015-.168-.041-.332-.068-.5a57.961,57.961,0,0,0-.853-6.133c-.319-1.607-.515-4.114-1.832-5.267a.639.639,0,0,0-.741-.095c-1.271.634-.768,2.575-.536,3.719.524,2.585,2.19,4.973,2.688,7.548a53,53,0,0,0-6.443-6.584c-1.441-1.4-2.97-3.265-4.8-4.088-.378-.171-.961.019-.919.527.19,2.215,2.019,3.351,3.612,4.7q.836.707,1.675,1.415l-.012-.005c-1.422-.49-4.145-1.8-5.424-.566a.608.608,0,0,0-.156.595c.451,1.487,2.671,1.9,3.927,2.392,2.619,1.02,5.272,1.937,7.952,2.782a67.3,67.3,0,0,1,8,12.721q-1.734-1.945-3.634-3.744c-1.042-.981-3.548-3.9-5.161-2.244-1.566,1.6,1.756,3.8,2.729,4.7a39.9,39.9,0,0,0,8.3,6.173l.01,0a73.407,73.407,0,0,1,4.5,12.771c.475,2.068.78,4.158,1.061,6.253a25.533,25.533,0,0,0-3.136-4.422c-1.4-1.619-3.288-4.217-5.67-4.263a.606.606,0,0,0-.527.3c-.958,1.751,1.368,3.434,2.5,4.494a50.459,50.459,0,0,1,7.045,8.141A.6.6,0,0,0,1285.2,548.151Z" transform="translate(10.283 47.889)" fill="#fb41c6"/>
    <path id="Tracé_7736" data-name="Tracé 7736" d="M1310.224,502.456l-.014.005q.839-.707,1.677-1.415c1.593-1.344,3.421-2.48,3.611-4.7.044-.509-.539-.7-.919-.527-1.827.826-3.356,2.687-4.8,4.088a52.863,52.863,0,0,0-6.441,6.584c.5-2.573,2.163-4.963,2.688-7.548.23-1.142.736-3.085-.537-3.719a.636.636,0,0,0-.739.095c-1.317,1.153-1.516,3.661-1.833,5.267a57.556,57.556,0,0,0-.854,6.134c-.026.164-.051.331-.068.5a.514.514,0,0,0,.014.129c-.01.134-.026.27-.036.4a.529.529,0,0,0,.093.346,69.755,69.755,0,0,0-7.474,12.27c.91-4.422,1.927-11.019-.985-11.911a.6.6,0,0,0-.594.156c-1.285,1.537-1.19,4.168-1.176,6.055.024,3.324.2,6.655.305,9.979a.563.563,0,0,0,.261.473,81.239,81.239,0,0,0-4.07,11.308c-.139.515-.254,1.034-.37,1.554.049-1.531.1-3.063.095-4.6,0-1.456-.129-3.471-1.673-4.124a.636.636,0,0,0-.836.219c-1.309,1.826-.637,5.158-.451,7.216a80.731,80.731,0,0,0,1.521,9.719,61,61,0,0,1-1.183,6.575.611.611,0,0,0,1.176.325c.375-1.492.646-3,.88-4.5a.607.607,0,0,0,.422-.266,50.382,50.382,0,0,1,7.043-8.14c1.132-1.061,3.458-2.744,2.5-4.5a.6.6,0,0,0-.526-.3c-2.382.046-4.27,2.646-5.671,4.263a25.676,25.676,0,0,0-3.136,4.422c.283-2.1.586-4.185,1.061-6.253a73.624,73.624,0,0,1,4.5-12.771l.012,0a39.954,39.954,0,0,0,8.3-6.173c.971-.9,4.294-3.1,2.729-4.7-1.615-1.653-4.119,1.263-5.163,2.246q-1.9,1.792-3.634,3.743a67.239,67.239,0,0,1,8-12.72c2.678-.846,5.333-1.761,7.95-2.782,1.258-.49,3.476-.905,3.929-2.393a.61.61,0,0,0-.157-.593C1314.369,500.661,1311.646,501.966,1310.224,502.456Z" transform="translate(29.674 48.348)" fill="#fb41c6"/>
  </g>
</svg>
