<svg xmlns="http://www.w3.org/2000/svg" width="22.07" height="22.062" viewBox="0 0 22.07 22.062">
  <g id="Groupe_356" data-name="Groupe 356" transform="translate(0 0)">
    <path id="Tracé_8519" data-name="Tracé 8519" d="M52.515,291.212,41.4,280.488s6.709-3.611,8.876-1.921c3.8-4.047,4.275-4.161,4.275-4.161l-1.685-2.3,1.968-1.748,7.708,7.479-1.9,2.415-2.157-1.689-4.436,4.511.787,2.422-.284,2.935Z" transform="translate(-40.943 -269.861)" fill="#fb41c6"/>
    <path id="Tracé_8518" data-name="Tracé 8518" d="M-1429.556,1374.966a12.925,12.925,0,0,1,1.37-1.224,8.267,8.267,0,0,1,7.354-1.077.377.377,0,0,0,.314-.046c1.12-1.1,2.229-2.218,3.34-3.33.019-.019.029-.047.108-.138a4.882,4.882,0,0,1-.495-.41,2.382,2.382,0,0,1,0-3.3,2.4,2.4,0,0,1,3.3-.166c.079.066.155.136.228.208q2.879,2.878,5.757,5.758a2.392,2.392,0,0,1,.468,2.973,2.388,2.388,0,0,1-3.687.588,6.83,6.83,0,0,1-.47-.523c-.107.1-.164.145-.216.2-1.059,1.059-2.115,2.12-3.18,3.173a.353.353,0,0,0-.1.413,8.346,8.346,0,0,1-1.834,8.3,4.1,4.1,0,0,1-.463.4h-.337a4.422,4.422,0,0,1-.414-.327q-2.356-2.347-4.7-4.7a1.65,1.65,0,0,1-.186-.322c-.141.174-.194.252-.26.318q-1.715,1.718-3.433,3.434a1.824,1.824,0,0,1-.227.208.59.59,0,0,1-.708.011.572.572,0,0,1-.222-.669,1.2,1.2,0,0,1,.274-.38q1.721-1.732,3.45-3.456c.071-.071.137-.146.212-.226-.071-.075-.126-.137-.184-.2-.767-.768-1.537-1.532-2.3-2.3q-1.38-1.391-2.754-2.788Zm11.616,10.27a.573.573,0,0,0,.063-.059c.06-.072.121-.143.175-.219a7.23,7.23,0,0,0,.942-6.917.7.7,0,0,1,.122-.82q2.086-2.082,4.171-4.165a.583.583,0,0,1,.913,0c.263.253.515.517.777.772a1.2,1.2,0,0,0,1.73.032,1.193,1.193,0,0,0-.041-1.709q-2.933-2.942-5.875-5.875a1.185,1.185,0,0,0-1.687-.035,1.194,1.194,0,0,0-.019,1.691c.229.247.474.478.712.717.427.428.426.7-.007,1.137-1.3,1.3-2.615,2.6-3.9,3.916a.875.875,0,0,1-1.071.231,6.973,6.973,0,0,0-5.116.02,6.552,6.552,0,0,0-1.981,1.185Z" transform="translate(1429.556 -1364.696)" fill="#fb41c6"/>
  </g>
</svg>
