<svg id="iconbuzz" xmlns="http://www.w3.org/2000/svg" width="107.473" height="108" viewBox="0 0 107.473 108">
  <g id="Groupe_37" transform="translate(39.755 25.23)">
    <g id="Groupe_2" transform="translate(0 0)">
      <g id="Groupe_1">
        <path id="Tracé_1" d="M42.959,31.239h0A13.042,13.042,0,0,0,30.051,18.2H9.9V37.166H29.92a13.49,13.49,0,0,1,8.956,3.556A13.669,13.669,0,0,0,42.959,31.239Z" transform="translate(-9.9 -18.2)" fill="#00e2ff"/>
        <path id="Tracé_2" d="M38.744,38.556A13.238,13.238,0,0,0,29.788,35H9.9V60.946H29.788A13.042,13.042,0,0,0,42.827,48.039h0A12.634,12.634,0,0,0,38.744,38.556Z" transform="translate(-9.9 -12.873)" fill="#fff"/>
        <path id="Tracé_3" d="M9.9,63.159,17.407,57.1H9.9Z" transform="translate(-9.9 -5.866)" fill="#00e87b"/>
      </g>
    </g>
  </g>
  <g id="Groupe_39" transform="translate(0 0)">
    <g id="Groupe_38" transform="translate(0 0)">
      <path id="Tracé_364" d="M74.612,29.427a2.655,2.655,0,0,1,1.449.4,2.868,2.868,0,0,1,1.054.659,4,4,0,0,1,.659.922,4.938,4.938,0,0,1,.132,1.449,2.762,2.762,0,0,1-.527,1.449,2.733,2.733,0,0,1-1.317.79,2.394,2.394,0,0,1,1.449,1.317,3.245,3.245,0,0,1-1.317,4.346,2.655,2.655,0,0,1-1.449.4,3.21,3.21,0,0,1-1.58,0L67.5,40.49,68.949,28.9ZM73.3,39.041h.659c.263,0,.4-.132.659-.132.132-.132.4-.263.527-.4a1.872,1.872,0,0,0,.263-.79,1.263,1.263,0,0,0-.4-1.317,2.34,2.34,0,0,0-1.317-.527l-2.766-.263-.4,3.161Zm.4-4.873a3.646,3.646,0,0,0,1.185-.132,1.2,1.2,0,0,0,.527-1.054v-.659c-.132-.132-.132-.4-.4-.4a1,1,0,0,0-.527-.263c-.263,0-.4-.132-.659-.132l-2.371-.263-.263,2.766Z" transform="translate(-13.5 -28.9)" fill="#fff"/>
      <path id="Tracé_365" d="M85.839,44.966a6.474,6.474,0,0,1-6.585-3.293,4.518,4.518,0,0,1,.4-3.688L82.81,31.4l2.371,1.185-3.161,6.585a6.423,6.423,0,0,0-.4.922,2,2,0,0,0,.4,1.712,7.3,7.3,0,0,0,1.054.79,2.1,2.1,0,0,0,1.976.263,2.808,2.808,0,0,0,1.317-1.449l3.161-6.585L91.9,36.01,88.736,42.6A5.7,5.7,0,0,1,85.839,44.966Z" transform="translate(-9.844 -28.107)" fill="#fff"/>
      <path id="Tracé_366" d="M98.263,44.063,94.18,39.98l1.58-1.58,6.585,6.454L100.9,46.3l-9.746.922,4.61,4.478-1.58,1.58L87.2,46.3l1.449-1.449Z" transform="translate(-7.254 -25.888)" fill="#fff"/>
      <path id="Tracé_367" d="M105.227,53.99l-2.634-5.137,1.976-1.054,4.215,8.166-1.844.922L97.456,54.78l3.029,5.663L98.51,61.5,93.9,52.8l1.844-.922Z" transform="translate(-5.129 -22.907)" fill="#fff"/>
      <path id="Tracé_368" d="M108.083,58.963,109.4,58.7l1.712,9.219-1.317.263-.79-3.82L98.863,66.339l-.263-1.58,10.141-1.976Z" transform="translate(-3.639 -19.451)" fill="#fff"/>
      <path id="Tracé_369" d="M110.422,79.288l-1.317-.132.659-6.454-3.688-.4-.527,6.059-1.317-.132.527-6.059-4.083-.4-.659,6.585L98.7,78.234l.79-8.034,11.59,1.185Z" transform="translate(-3.607 -15.805)" fill="#fff"/>
      <path id="Tracé_370" d="M105.575,88.656a3.076,3.076,0,0,0,1.317-1.58,2.442,2.442,0,0,0,.263-.922c0-.263.132-.659,0-.922a1.138,1.138,0,0,0-.4-.79,2.756,2.756,0,0,0-.79-.527,1.125,1.125,0,0,0-.922,0c-.263.132-.659.263-.79.527-.263.263-.527.659-.79.922l-.79,1.185a10.524,10.524,0,0,1-1.976,1.976,2.124,2.124,0,0,1-1.185.4A3.309,3.309,0,0,1,96.751,87.6a2.762,2.762,0,0,1-.527-1.449,3.21,3.21,0,0,1,0-1.58l.4-1.58a6.227,6.227,0,0,1,.922-1.58,11.875,11.875,0,0,1,1.317-1.185,7.425,7.425,0,0,1,1.58-.527,4.207,4.207,0,0,1,1.844.4l-.527,1.317a3.9,3.9,0,0,0-1.317-.263,1.5,1.5,0,0,0-1.054.4,5.728,5.728,0,0,0-.922.79,4.621,4.621,0,0,0-.659,1.054,2.481,2.481,0,0,0-.263,1.054,1.454,1.454,0,0,0,0,1.054,1.845,1.845,0,0,0,1.185,1.58,2.568,2.568,0,0,0,1.054.132,2.123,2.123,0,0,0,.922-.527c.263-.263.527-.659.79-.922l.79-1.185a3.551,3.551,0,0,1,.922-1.054,6.084,6.084,0,0,1,.922-.922,1.839,1.839,0,0,1,1.185-.4,2.166,2.166,0,0,1,1.317.263,3.011,3.011,0,0,1,1.317.922A4.12,4.12,0,0,1,108.6,84.7a2.694,2.694,0,0,1,0,1.449l-.4,1.58a14.366,14.366,0,0,1-.79,1.449,2.1,2.1,0,0,1-1.185.922,2.655,2.655,0,0,1-1.449.4,7.708,7.708,0,0,1-1.712-.263l.527-1.317A2.632,2.632,0,0,0,105.575,88.656Z" transform="translate(-4.424 -12.793)" fill="#fff"/>
      <path id="Tracé_371" d="M102.959,93.488l1.054.79-5.927,7.244-1.054-.922,2.5-3.029L91.5,90.985,92.554,89.8l8.034,6.585Z" transform="translate(-5.89 -9.59)" fill="#fff"/>
      <path id="Tracé_372" d="M75.8,101.543l1.185-.527.79,1.185a5.168,5.168,0,0,1,1.054-1.844A6.618,6.618,0,0,1,80.41,99.3a5.012,5.012,0,0,1,2.371-.4,5.522,5.522,0,0,1,2.107.527,5.908,5.908,0,0,1,1.712,1.317,7.6,7.6,0,0,1,1.844,4.346,6.524,6.524,0,0,1-.263,2.239,8.4,8.4,0,0,1-1.054,1.844,5.753,5.753,0,0,1-3.688,1.712,7.51,7.51,0,0,1-1.712-.132,3.14,3.14,0,0,1-1.449-.79,3.22,3.22,0,0,1-1.185-1.449l1.844-.79a2.35,2.35,0,0,0,1.58,1.185,1.454,1.454,0,0,0,1.054,0,3.1,3.1,0,0,0,1.054-.263,4.73,4.73,0,0,0,1.317-.922,6.152,6.152,0,0,0,.659-1.317,3.21,3.21,0,0,0,0-1.58l-.4-1.58a14.367,14.367,0,0,0-.79-1.449,3.11,3.11,0,0,0-1.185-1.054,4.718,4.718,0,0,0-1.449-.527,3.088,3.088,0,0,0-1.58.263,5.339,5.339,0,0,0-1.185.659,4,4,0,0,0-.659.922,1.86,1.86,0,0,0-.132,1.185,4.68,4.68,0,0,0,.263,1.317l2.9-1.185.659,1.449-4.61,1.844Z" transform="translate(-10.868 -6.713)" fill="#fff"/>
      <path id="Tracé_373" d="M70.519,113.832a7.458,7.458,0,0,1-2.371-.4,5.159,5.159,0,0,1-3.029-3.029,8.274,8.274,0,0,1-.263-4.741,5.731,5.731,0,0,1,1.054-1.976,9.068,9.068,0,0,1,1.712-1.449,6.535,6.535,0,0,1,4.741-.263,5.16,5.16,0,0,1,3.029,3.029,8.274,8.274,0,0,1,.263,4.741,5.731,5.731,0,0,1-1.054,1.976,9.068,9.068,0,0,1-1.712,1.449A5.367,5.367,0,0,1,70.519,113.832Zm-.132-1.712a3.507,3.507,0,0,0,1.58-.4,4.008,4.008,0,0,0,1.054-1.054,2.762,2.762,0,0,0,.527-1.449,6.975,6.975,0,0,0-.132-3.293,7.059,7.059,0,0,0-.659-1.449,2.1,2.1,0,0,0-1.185-.922,3.773,3.773,0,0,0-3.161.132,4.009,4.009,0,0,0-1.054,1.054,2.762,2.762,0,0,0-.527,1.449,6.975,6.975,0,0,0,.132,3.293,7.059,7.059,0,0,0,.659,1.449,2.1,2.1,0,0,0,1.185.922,2.267,2.267,0,0,0,1.58.263Z" transform="translate(-14.411 -5.832)" fill="#fff"/>
      <path id="Tracé_374" d="M55.22,111.471l-1.976-.922,1.449-9.615h0l-6.717,6.98L46,107.124,54.693,98.3,56.8,99.354Z" transform="translate(-20.317 -6.895)" fill="#fff"/>
      <path id="Tracé_375" d="M42.48,104.5l-1.58-1.317L48.276,94.1l1.58,1.317Z" transform="translate(-21.934 -8.227)" fill="#fff"/>
      <path id="Tracé_376" d="M37.546,100.42l-3.293-4.478A4.53,4.53,0,0,1,33.2,93.176a2.613,2.613,0,0,1,1.317-2.107,4.12,4.12,0,0,1,1.317-.659,2.9,2.9,0,0,1,1.054-.132,1.872,1.872,0,0,1,.79.263c.132.132.263.132.4.263h0c-.132-.132-.132-.4-.263-.527V89.62a1.138,1.138,0,0,1,.4-.79c.263-.263.527-.659.79-.79.527-.4.922-.79,1.449-1.185A2.868,2.868,0,0,0,41.1,85.8l1.317,1.712a1.315,1.315,0,0,1-.527.659,2.312,2.312,0,0,1-.659.527,3.551,3.551,0,0,0-1.054.922,2.123,2.123,0,0,0-.527.922,1.125,1.125,0,0,0,0,.922,2.647,2.647,0,0,0,.527,1.054l1.844,2.371,3.82-2.9,1.185,1.58Zm3.029-4.741L38.6,93.044a2.415,2.415,0,0,0-1.317-.922,1.885,1.885,0,0,0-1.449.4,1.587,1.587,0,0,0-.659.659,1.187,1.187,0,0,0-.132.659,5.7,5.7,0,0,0,.132.659c.132.263.263.4.4.659l1.976,2.634Z" transform="translate(-24.376 -10.859)" fill="#fff"/>
      <path id="Tracé_377" d="M28.859,85.71,28.2,83.6l9.746-7.9.659,2.107-2.634,1.976,1.449,4.478,3.293.132.659,1.976Zm6.849-1.449-1.054-3.424-4.215,3.293h0Z" transform="translate(-25.961 -14.061)" fill="#fff"/>
      <path id="Tracé_378" d="M26.5,75.166V73.059l9.878-.132L36.246,67h1.712l.132,8.034Z" transform="translate(-26.5 -16.82)" fill="#fff"/>
      <path id="Tracé_379" d="M29,56.929l.922-1.976,10.141-.922h0l-7.771-3.82.922-1.712,10.4,5.137L42.7,55.612l-10.01.922h0l7.639,3.82-.79,1.712Z" transform="translate(-25.707 -22.685)" fill="#fff"/>
      <path id="Tracé_380" d="M39.144,40.693a6.485,6.485,0,0,1,1.976-1.317,4.228,4.228,0,0,1,2.239-.263,5.642,5.642,0,0,1,2.107.659A7.523,7.523,0,0,1,48.759,43.2a6.2,6.2,0,0,1,.527,2.107,5.46,5.46,0,0,1-.4,2.107A6.449,6.449,0,0,1,45.466,50.7a4.228,4.228,0,0,1-2.239.263,5.642,5.642,0,0,1-2.107-.659,9.437,9.437,0,0,1-1.976-1.449,5.21,5.21,0,0,1-1.317-1.976,6.2,6.2,0,0,1-.527-2.107,6.69,6.69,0,0,1,.4-2.239A9.946,9.946,0,0,1,39.144,40.693Zm1.185,1.185a5.439,5.439,0,0,0-.922,1.449,5.906,5.906,0,0,0-.132,1.449,4.718,4.718,0,0,0,.527,1.449A7.657,7.657,0,0,0,42.041,48.6a4.869,4.869,0,0,0,1.449.659,2.694,2.694,0,0,0,1.449,0,3.982,3.982,0,0,0,2.371-2.239,5.906,5.906,0,0,0,.132-1.449,4.718,4.718,0,0,0-.527-1.449,7.657,7.657,0,0,0-2.239-2.371,2.762,2.762,0,0,0-1.449-.527,2.694,2.694,0,0,0-1.449,0,2.115,2.115,0,0,0-1.449.659Z" transform="translate(-23.076 -25.678)" fill="#fff"/>
      <path id="Tracé_381" d="M46.5,35.6l1.976-.79,5.4,7.507h0l-1.185-9.22,1.976-.79L60.2,39.678h0L58.88,30.59l1.976-.79L62.3,41.785l-1.976.79L54.8,35.2h0l1.185,9.22-2.239.79Z" transform="translate(-20.159 -28.615)" fill="#fff"/>
    </g>
  </g>
</svg>
